<svg
width="22" 
height="17" 
viewBox="0 0 22 17" 
className="fill-white group-hover:fill-purple-400 transition duration-200"
fill="none" 
xmlns="http://www.w3.org/2000/svg">
<path d="M18.4316 1.0115C17.1051 0.360247 15.9547 0.287858 14.4675 0.0130478C14.4404 0.00775084 13.4904 -0.0134571 13.4764 0.0130478C13.2935 0.361203 13.6182 0.65451 13.4764 1.0115C11.8768 0.755253 10.0881 0.755253 8.52127 1.0115C8.37935 0.646575 8.70503 0.361203 8.52127 0.0130478C8.50732 -0.0125743 7.55733 0.00863366 7.53024 0.0130478C6.04383 0.286986 4.89341 0.359374 3.56612 1.0115C3.55463 1.0168 3.57266 1.00003 3.56612 1.0115C0.868072 5.32457 0.230453 9.8365 0.593031 13.9914C0.578265 13.9792 0.594676 14.0117 0.593031 13.9914C2.37313 15.3902 3.85587 16.4239 5.54818 16.9868C5.53094 17.0107 5.57527 16.9956 5.54818 16.9868C5.9485 16.4019 7.22428 15.6385 7.53024 14.9899C7.5483 14.9519 6.57612 15.0049 6.53921 14.9899C5.9732 14.7602 6.06663 14.3095 5.54818 13.9914C5.50717 13.9658 5.51045 14.0215 5.54818 13.9914C5.44401 14.0833 5.65728 13.904 5.54818 13.9914C5.52602 13.9808 5.56703 13.9746 5.54818 13.9914C8.95412 15.6553 13.0838 15.6553 16.4495 13.9914C16.4298 13.9747 16.4716 13.98 16.4495 13.9914C16.3396 13.904 16.5537 14.0834 16.4495 13.9914C16.4873 14.0215 16.4905 13.9658 16.4495 13.9914C15.9311 14.3156 16.0254 14.7611 15.4585 14.9899C15.4216 15.0049 14.4494 14.9519 14.4675 14.9899C14.78 15.6376 16.0566 16.4018 16.4495 16.9868C16.4225 16.9956 16.466 17.0115 16.4495 16.9868C18.15 16.4239 19.6245 15.3902 21.4047 13.9914C21.403 14.0118 21.4202 13.9792 21.4047 13.9914C21.8385 9.18798 20.7818 4.71045 18.4316 1.0115C18.4431 1.0168 18.4258 0.999145 18.4316 1.0115ZM7.53024 11.9945C6.50481 11.9945 5.54818 10.2363 5.54818 8.99916C5.54818 7.76209 6.48843 7.00224 7.53024 7.00224C8.58023 7.00224 9.52866 7.77092 9.5123 8.99916C9.5123 10.2363 8.57202 11.9945 7.53024 11.9945ZM14.4675 11.9945C13.442 11.9945 12.4854 10.2363 12.4854 8.99916C12.4854 7.76209 13.4257 7.00224 14.4675 7.00224C15.5175 7.00224 16.4659 7.77092 16.4495 8.99916C16.4495 10.2363 15.5175 11.9945 14.4675 11.9945Z" fill="white"/>
</svg>
