<svg width="21" height="20" viewBox="0 0 21 20" fill="none" xmlns="http://www.w3.org/2000/svg">
<path fill-rule="evenodd" clip-rule="evenodd" d="M18.2767 0.430003C18.5238 0.325994 18.7943 0.290122 19.0599 0.32612C19.3256 0.362119 19.5768 0.468672 19.7873 0.634688C19.9979 0.800705 20.1601 1.02012 20.257 1.27009C20.354 1.52005 20.3822 1.79144 20.3387 2.056L18.0707 15.813C17.8507 17.14 16.3947 17.901 15.1777 17.24C14.1597 16.687 12.6477 15.835 11.2877 14.946C10.6077 14.501 8.52465 13.076 8.78065 12.062C9.00065 11.195 12.5007 7.937 14.5007 6C15.2857 5.239 14.9277 4.8 14.0007 5.5C11.6987 7.238 8.00265 9.881 6.78065 10.625C5.70265 11.281 5.14065 11.393 4.46865 11.281C3.24265 11.077 2.10565 10.761 1.17765 10.376C-0.0763465 9.856 -0.0153465 8.132 1.17665 7.63L18.2767 0.430003Z" fill="white"/>
</svg>
