<svg width="19" height="15" viewBox="0 0 19 15" fill="none" xmlns="http://www.w3.org/2000/svg">
<path d="M18.477 2.21071C18.017 2.80819 17.1265 3.75336 16.4958 4.17812C16.4958 4.01337 16.4958 4.33419 16.4958 4.17812C16.5009 7.0124 15.594 10.0558 13.5239 12.0478C11.4537 14.0397 8.50859 15.0384 5.59899 14.9989C3.91686 15.0044 2.15485 14.7393 0.645892 14.0152C0.564522 13.9805 0.645585 14.1017 0.645892 14.0152C0.645892 13.8907 0.518062 13.0315 0.645892 13.0315C2.29938 12.9783 4.28907 13.0319 5.59899 12.0478C4.10235 12.0183 3.24685 10.4239 2.62713 9.09664C2.57985 9.16039 2.59584 9.02421 2.62713 9.09664C2.54664 9.09047 2.6744 9.0329 2.62713 9.09664C3.08199 9.1411 3.17889 9.22134 3.61775 9.09664C1.96558 8.76276 0.823559 7.77993 0.645892 6.14553C0.639581 6.06712 0.580431 5.20792 0.645892 5.16182C0.571456 5.13125 0.711342 5.11582 0.645892 5.16182C1.08925 5.3523 2.14257 6.14157 2.62713 6.14553C1.17944 5.22052 0.0951664 2.82585 0.645892 1.22701C0.702743 1.07165 1.47039 1.25901 1.63651 1.22701C1.52322 1.10442 1.80262 1.195 1.63651 1.22701C3.59008 3.25118 6.71258 5.02793 9.56147 5.16182C9.48856 4.87834 8.56887 4.47038 8.57085 4.17812C8.5975 2.64566 10.0774 0.802027 11.5427 0.243301C13.0079 -0.315415 14.4174 0.119459 15.5052 1.22701C16.2466 1.08949 16.8171 0.583008 17.4864 0.243301C17.5355 0.213501 18.428 0.213501 18.477 0.243301C18.5077 0.291059 18.5077 1.17925 18.477 1.22701C18.1528 1.94982 17.1906 1.80559 16.4958 2.21071C17.1042 2.14201 17.9028 2.41848 18.477 2.21071C18.5254 2.17867 18.4287 2.17867 18.477 2.21071C18.5176 2.22875 18.4651 2.16894 18.477 2.21071C18.502 2.17481 18.489 2.25248 18.477 2.21071Z" fill="white"/>
</svg>
